<svg xmlns="http://www.w3.org/2000/svg" viewBox="0 0 64 64" role="img" aria-label="Henry &amp; Co. Fabric Care">
  <title>Henry &amp; Co. Fabric Care</title>
  <g fill="#0F0F12">
    <path d="M9 7 H17 V57 H9 Z"/>
    <path d="M6.5 7 H19.5 V9 H6.5 Z"/>
    <path d="M6.5 55 H19.5 V57 H6.5 Z"/>
    <path d="M37 7 H45 V57 H37 Z"/>
    <path d="M34.5 7 H47.5 V9 H34.5 Z"/>
    <path d="M34.5 55 H47.5 V57 H34.5 Z"/>
    <path d="M9 28 H45 V34 H9 Z"/>
  </g>
  <path d="M55.25 44.6 C 55.25 47.0 53.6 48.7 51.5 48.7 C 49.4 48.7 47.75 47.0 47.75 44.6 C 47.75 42.4 49.7 40.0 51.5 38.4 C 53.3 40.0 55.25 42.4 55.25 44.6 Z" fill="#6B7CFF" opacity="0.92"/>
  <g fill="#0F0F12" opacity="0.84" style="font-family: 'Newsreader', 'Iowan Old Style', 'Palatino Linotype', serif; font-feature-settings: 'smcp' 1, 'kern' 1; font-variant: small-caps;">
    <text x="49.5" y="53" font-style="italic" font-weight="400" font-size="11" letter-spacing="0.06em">Care</text>
  </g>
  <rect x="49.5" y="56" width="13.5" height="1.6" fill="#6B7CFF"/>
</svg>
